<?xml version="1.0" encoding="utf-8"?>
<!-- Generator: Adobe Illustrator 16.0.4, SVG Export Plug-In . SVG Version: 6.00 Build 0)  -->
<!DOCTYPE svg PUBLIC "-//W3C//DTD SVG 1.1//EN" "http://www.w3.org/Graphics/SVG/1.1/DTD/svg11.dtd">
<svg version="1.1" id="Layer_1" xmlns="http://www.w3.org/2000/svg" xmlns:xlink="http://www.w3.org/1999/xlink" x="0px" y="0px"
	 width="180px" height="120px" viewBox="0 0 180 120" enable-background="new 0 0 180 120" xml:space="preserve">
<g>
	<path fill="#49699F" d="M85.249,32.149c0.045-0.04,1.545-0.051,4.501-0.03s4.57,0.051,4.842,0.092
		c2.046,0.367,3.773,1.346,5.184,2.937c0.545,0.611,0.977,1.223,1.296,1.834c0.681,1.184,1.113,2.509,1.295,3.977l0.068,0.428
		l0.068,13.887c0,9.259-0.023,14.069-0.068,14.437c-0.229,2.041-1.001,3.773-2.318,5.201c-1.183,1.266-2.615,2.061-4.296,2.385
		c-0.273,0.041-0.638,0.062-1.093,0.062c-0.454,0-0.817-0.021-1.09-0.062c-1.41-0.244-2.638-0.834-3.684-1.771
		c-0.182-0.164-0.296-0.266-0.341-0.307c-0.046-0.041-0.159,0.041-0.341,0.244c-1.046,0.939-2.296,1.551-3.751,1.834
		c-0.228,0.041-0.58,0.062-1.057,0.062c-0.478,0-0.853-0.021-1.126-0.062c-1.636-0.324-3.046-1.119-4.228-2.385
		c-1.319-1.428-2.092-3.16-2.318-5.201c-0.046-0.367-0.068-2.486-0.068-6.359c0-3.876,0.022-5.997,0.068-6.364
		c0.227-1.958,0.943-3.63,2.148-5.017c1.204-1.385,2.67-2.222,4.398-2.508c0.273-0.081,1.455-0.123,3.547-0.123h3.205l0.273,0.123
		c0.863,0.327,1.455,1,1.773,2.019l0.068,0.306v8.687v8.748l0.136,0.305c0.092,0.367,0.228,0.674,0.41,0.92
		c0.227,0.326,0.521,0.57,0.887,0.732c0.317,0.205,0.682,0.307,1.09,0.307c0.41,0,0.773-0.102,1.093-0.307
		c0.635-0.324,1.067-0.877,1.295-1.652l0.137-0.305v-13.52c0-8.971,0-13.581,0-13.826c-0.092-0.815-0.387-1.569-0.887-2.264
		c-0.501-0.693-1.091-1.162-1.773-1.407c-0.318-0.123-0.647-0.193-0.988-0.214c-0.341-0.02-1.604-0.031-3.787-0.031
		c-2.728,0-4.183,0.021-4.364,0.062c-0.682,0.082-1.364,0.408-2.046,0.979c-0.682,0.571-1.227,1.244-1.637,2.019
		c-0.272,0.489-0.478,0.837-0.613,1.04c-0.365,0.408-0.819,0.673-1.364,0.795c-0.319,0.082-0.66,0.061-1.023-0.062
		c-0.955-0.244-1.593-0.876-1.911-1.896c-0.091-0.244-0.136-0.509-0.136-0.795c0-0.53,0.113-1.041,0.341-1.53
		c0.272-0.651,0.658-1.324,1.159-2.019c0.546-0.774,1.16-1.447,1.841-2.018C81.61,33.148,83.338,32.354,85.249,32.149z
		 M86.953,62.187v-6.974h-1.364c-0.955,0-1.479,0.01-1.569,0.031c-0.091,0.021-0.228,0.071-0.409,0.153
		c-0.773,0.286-1.295,0.917-1.568,1.896l-0.068,0.244v5.813v5.871l0.068,0.305c0.273,0.898,0.773,1.49,1.5,1.775
		c0.909,0.369,1.727,0.225,2.455-0.428c0.409-0.326,0.704-0.795,0.887-1.406l0.068-0.246V62.187z"/>
</g>
<path fill-rule="evenodd" clip-rule="evenodd" fill="#2B2B2B" d="M128.466,111.145c-10.019,0.221-19.675-1.456-29.045-4.855
	c-3.184-1.155-6.171-2.605-8.312-5.354c-0.333-0.427-0.536-0.453-0.819-0.051c-2.156,3.07-5.363,4.549-8.743,5.734
	c-5.043,1.77-10.184,3.207-15.477,3.977c-2.128,0.31-4.291,0.438-6.442,0.608c-3.268,0.259-6.531,0.206-9.796,0.194
	c-6.682-0.025-13.097-1.294-19.187-4.147c-2.85-1.335-5.76-2.557-8.105-4.71c-4.134-3.798-7.04-8.785-4.63-14.698
	c1.662-4.079,4.853-6.791,8.89-8.467c1.573-0.652,3.145-1.416,4.885-1.493c2.647-0.117,4.926,2.581,4.45,5.213
	c-0.175,0.97-0.533,1.885-1.084,2.708c-0.152,0.227-0.355,0.49-0.691,0.407c-0.305-0.075-0.228-0.386-0.302-0.605
	c-0.258-0.763-0.152-1.632-0.711-2.31c-0.818-0.992-2.694-1.449-4.07-0.966c-2.979,1.046-5.138,4.06-5.387,7.253
	c-0.167,2.149,0.995,3.403,2.545,4.54c3.338,2.449,6.719,1.839,10.182,0.29c3.845-1.719,7.618-3.56,10.918-6.213
	c2.062-1.657,4.108-3.348,6.036-5.157c3.729-3.497,7.651-6.745,12.108-9.259c3.124-1.762,6.546-2.633,10.156-2.805
	c4.163-0.198,8.271,0.188,11.767,2.526c2.163,1.446,3.53,1.104,5.697-0.073c8.002-4.347,16.012-3.564,23.712,1.006
	c3.904,2.316,7.347,5.258,10.635,8.383c5.582,5.307,11.797,9.627,19.138,12.187c3.392,1.183,6.291,0.35,8.967-1.894
	c1.796-1.506,1.719-3.351,1.307-5.359c-0.6-2.92-3.87-5.833-6.589-5.805c-1.833,0.019-2.7,0.785-3.135,2.59
	c-0.114,0.477,0.056,1.295-0.5,1.385c-0.726,0.118-0.854-0.731-1.139-1.243c-1.109-1.995-0.69-3.865,0.552-5.616
	c0.995-1.401,2.483-1.784,4.026-1.366c3.734,1.012,7.269,2.474,10.009,5.364c3.325,3.51,4.9,7.576,3.245,12.311
	c-1.301,3.72-3.816,6.66-7.204,8.688c-5.358,3.205-11.096,5.543-17.286,6.516C135.536,111.127,131.978,111.292,128.466,111.145z"/>
<path fill-rule="evenodd" clip-rule="evenodd" d="M38.792,8.637c2.837,0,5.007-0.053,7.173,0.011
	c4.442,0.131,8.887,0.26,13.324,0.509c4.347,0.244,8.689,0.582,13.024,0.984c2.514,0.233,5.005,0.739,7.376,1.626
	c2.633,0.985,5.375,1.408,8.133,1.475c5.177,0.126,10.268-0.458,15.209-2.21c2.657-0.941,5.513-0.99,8.317-1.173
	c4.711-0.307,9.416-0.778,14.132-0.92c4.774-0.144,9.549-0.46,14.331-0.31c1.472,0.046,2.945,0.022,4.418,0.004
	c4.613-0.058,9.225,0.16,13.812,0.542c5.663,0.472,11.37,0.812,16.834,2.665c1.097,0.372,1.591,0.862,1.513,2.076
	c-0.171,2.645,0.204,5.31-0.272,7.948c-0.133,0.732-0.225,1.531-0.988,1.86c-3.673,1.583-5.414,4.609-6.671,8.227
	c-1.672,4.811-3.924,9.396-6.021,14.041c-2.801,6.202-7.773,9.742-13.873,12.134c-5.232,2.052-10.612,2.992-16.235,2.992
	c-6.238-0.001-12.353-0.581-18.327-2.472c-1.787-0.566-3.197-1.639-4.498-2.855c-3.672-3.435-7.083-7.105-9.847-11.342
	c-1.593-2.442-2.338-5.182-2.972-7.969c-0.441-1.945-0.792-3.912-1.295-5.84c-0.383-1.469-0.993-2.895-2.248-3.845
	c-2.667-2.022-5.932-1.299-7.615,1.608c-1.025,1.77-1.317,3.757-1.705,5.71c-0.876,4.424-2.01,8.711-4.867,12.384
	c-3.043,3.914-6.352,7.561-10.167,10.72c-1.707,1.413-3.899,1.82-5.988,2.349c-6.15,1.557-12.437,1.819-18.715,1.465
	c-7.298-0.412-14.037-2.759-20.115-6.869c-2.603-1.761-4.377-4.264-5.788-7c-2.956-5.731-5.45-11.677-7.644-17.732
	c-0.866-2.391-2.44-4.039-4.539-5.006c-1.981-0.912-2.264-2.438-2.342-4.149c-0.107-2.327-0.014-4.662-0.037-6.994
	c-0.007-0.696,0.327-0.994,0.94-1.226c2.725-1.029,5.554-1.575,8.429-1.943c5.457-0.698,10.93-1.079,16.431-1.309
	C32.771,8.664,36.117,8.813,38.792,8.637z M48.404,56.758c2.867-0.029,5.935,0.12,8.984-0.259c3.474-0.431,6.81-1.231,9.626-3.514
	c2.234-1.811,4.166-3.917,5.978-6.121c1.827-2.222,3.14-4.751,3.937-7.537c0.989-3.455,1.516-7.001,2.009-10.543
	c0.257-1.845,0.36-3.911-0.632-5.498c-2.647-4.235-6.495-7.029-11.344-8.362c-3.056-0.84-6.225-0.722-9.339-0.924
	c-5.29-0.344-10.599-0.406-15.901-0.528c-1.421-0.033-2.846,0.219-4.27,0.215c-5.304-0.017-10.332,1.294-15.194,3.245
	c-2.637,1.057-4.47,3.03-4.873,5.96c-0.213,1.552-0.276,3.117-0.172,4.726c0.301,4.655,1.665,9.044,3.03,13.428
	c1.318,4.228,4.21,7.436,7.461,10.286c2.805,2.458,6.101,3.995,9.777,4.787C41.039,56.885,44.625,56.722,48.404,56.758z
	 M131.682,56.749c3.383-0.035,6.772,0.162,10.133-0.481c7.591-1.452,12.939-5.949,16.676-12.469
	c2.107-3.679,2.832-7.879,3.708-11.977c0.681-3.187,1.032-6.427,0.246-9.669c-0.203-0.835-0.536-1.611-1.047-2.327
	c-1.616-2.266-4.029-3.252-6.53-4.028c-5.209-1.615-10.573-2.43-16.013-2.296c-4.277,0.105-8.561,0.125-12.84,0.384
	c-2.354,0.143-4.722,0.277-7.089,0.322c-1.381,0.026-2.771,0.126-4.135,0.341c-4.902,0.771-8.796,3.333-11.972,7.034
	c-0.799,0.931-1.44,1.947-1.644,3.323c-0.417,2.822,0.078,5.52,0.564,8.242c0.566,3.165,1.09,6.332,2.485,9.289
	c1.746,3.702,4.528,6.557,7.377,9.375c1.99,1.968,4.356,3.282,7.062,3.964C122.945,56.853,127.313,56.81,131.682,56.749z"/>
</svg>
